<svg width="121" height="121" viewBox="0 0 121 121" fill="none" xmlns="http://www.w3.org/2000/svg">
<rect width="121" height="121" rx="30" fill="#09090B"/>
<path d="M50.63 22.2731C50.53 25.5731 48.11 32.3031 47.25 34.2731" stroke="white" stroke-width="5" stroke-linecap="round" stroke-linejoin="round"/>
<path d="M51.33 24.5631C63.12 22.8331 80.12 20.7731 92.53 20.0231C98.76 19.6431 96.75 24.0231 91.6 28.0031" stroke="white" stroke-width="5" stroke-linecap="round" stroke-linejoin="round"/>
<path d="M56.18 34.8431C57.75 35.1431 60.13 34.9831 61.89 34.7831C68.42 34.0231 75.66 33.0031 82.63 32.3831C84.4 32.2231 86.23 32.1931 87.98 32.6031" stroke="white" stroke-width="5" stroke-linecap="round" stroke-linejoin="round"/>
<path d="M53.83 44.3531C54.75 45.2731 55.03 46.3631 55.12 46.9331C55.73 50.5031 56.95 57.7031 57.99 64.9931C58.16 66.1531 58.31 67.2931 58.45 68.3731" stroke="white" stroke-width="5" stroke-linecap="round" stroke-linejoin="round"/>
<path d="M56.26 45.5831C65.11 44.4831 82.35 41.9331 87.21 41.4831C89.51 41.2731 91.01 42.2731 90.84 44.9131C90.59 48.7431 88.92 56.0031 87.61 62.7431C87.39 63.8631 87.16 64.9531 86.9 66.0031" stroke="white" stroke-width="5" stroke-linecap="round" stroke-linejoin="round"/>
<path d="M58 55.7631C65.38 54.7731 79.5 52.5231 88.52 52.0331" stroke="white" stroke-width="5" stroke-linecap="round" stroke-linejoin="round"/>
<path d="M59.25 66.0831C66.27 65.2231 78 63.8931 86.14 63.3931" stroke="white" stroke-width="5" stroke-linecap="round" stroke-linejoin="round"/>
<path d="M48.04 76.9031C51 77.6531 53.39 77.5731 56 77.3331C66.72 76.3431 80.7 75.0531 90.88 74.4831C93.58 74.3331 96.07 74.3931 98.72 74.9431" stroke="white" stroke-width="5" stroke-linecap="round" stroke-linejoin="round"/>
<path d="M70.36 24.5631C71.35 25.5531 72 26.7731 72 28.1831C72 29.0631 71.98 70.1931 71.89 86.5231C71.87 89.4331 71.86 91.5531 71.84 92.5231" stroke="white" stroke-width="5" stroke-linecap="round" stroke-linejoin="round"/>
<path d="M26.5 26.5231C29.85 28.1331 35.16 33.1531 36 35.6531" stroke="white" stroke-width="5" stroke-linecap="round" stroke-linejoin="round"/>
<path d="M21 57.0231C23.25 58.0231 24.75 57.5231 25.75 57.2731C26.75 57.0231 35 54.0231 36.5 53.5231C39.75 52.4431 40.09 54.5831 37.94 57.6231C30.75 67.7731 31 67.5231 38.47 73.7931C41.35 76.2131 41.27 77.6331 39 79.5231C37.5 80.7731 29.75 87.5231 28.25 88.0231" stroke="white" stroke-width="5" stroke-linecap="round" stroke-linejoin="round"/>
<path d="M24 89.5231C27 89.0231 33 87.7731 37.5 88.7731C42 89.7731 66.82 96.4831 71.25 97.7731C83.25 101.273 92.5 102.273 101.5 100.523" stroke="white" stroke-width="5" stroke-linecap="round" stroke-linejoin="round"/>
</svg>
