<svg width="256" height="256" viewBox="0 0 256 256" fill="none" xmlns="http://www.w3.org/2000/svg">
<circle cx="128" cy="128" r="128" fill="black"/>
<g filter="url(#filter0_d_4_5)">
<path d="M84.4815 77.7792C83.8081 77.7792 82.9102 77.5541 81.7879 77.1039C80.7778 76.5411 79.431 75.8095 77.7475 74.9091C76.2884 74.0087 74.6049 73.1082 72.697 72.2078C70.789 71.3074 68.881 70.4069 66.9731 69.5065C63.1571 67.7056 61.2492 65.342 61.2492 62.4156C61.2492 58.1385 63.3255 56 67.4781 56C69.4983 56 73.8754 57.5758 80.6094 60.7273C87.4557 64.1039 90.8788 67.4805 90.8788 70.8571C90.8788 75.4719 88.7464 77.7792 84.4815 77.7792ZM146.771 183.805C142.843 183.805 140.879 181.498 140.879 176.883V166.584H100.475C96.3221 166.584 94.2458 164.784 94.2458 161.182C94.2458 157.58 96.3221 155.779 100.475 155.779H140.879V146.662H114.616C110.127 146.662 106.872 145.706 104.852 143.792C102.832 141.766 101.934 138.615 102.158 134.338V111.039C102.158 106.649 103.112 103.442 105.02 101.416C106.928 99.3896 110.127 98.4892 114.616 98.7143H140.879V90.7792H117.478C114.111 90.7792 112.428 89.1472 112.428 85.8831C112.428 82.5065 114.111 80.8182 117.478 80.8182H140.879V69.6753H112.259C109.117 69.6753 107.545 71.3074 107.545 74.5714V84.026C107.545 88.5281 105.413 90.7792 101.148 90.7792C96.9955 90.7792 94.9192 88.5281 94.9192 84.026V71.7013C94.9192 67.0866 95.9293 63.71 97.9495 61.5714C99.9697 59.4329 103.337 58.4762 108.051 58.7013H186.165C190.879 58.7013 194.358 59.7143 196.603 61.7403C198.847 63.7662 199.801 67.0866 199.465 71.7013V83.8571C199.465 88.4719 197.332 90.7792 193.067 90.7792C188.915 90.7792 186.838 88.4719 186.838 83.8571V74.5714C186.838 71.3074 185.211 69.6753 181.956 69.6753H152.832V80.8182H176.569C179.824 80.8182 181.451 82.5065 181.451 85.8831C181.451 89.1472 179.824 90.7792 176.569 90.7792H152.832V98.7143H180.441C184.706 98.7143 187.848 99.671 189.869 101.584C192.001 103.498 192.955 106.649 192.731 111.039V134.338C192.731 138.615 191.721 141.823 189.7 143.961C187.792 145.987 184.706 146.887 180.441 146.662H152.832V155.779H193.404C197.669 155.779 199.801 157.58 199.801 161.182C199.801 164.784 197.669 166.584 193.404 166.584H152.832V176.883C152.832 181.498 150.811 183.805 146.771 183.805ZM78.5892 109.688C77.4669 109.688 75.615 108.957 73.0337 107.494L59.5657 101.584C56.1987 100.121 54.5152 97.9827 54.5152 95.1688C54.5152 90.8918 56.5915 88.7532 60.7441 88.7532C61.7542 88.7532 63.3816 89.1472 65.6263 89.9351C67.9832 90.7229 70.9574 91.8485 74.5488 93.3117C81.6195 96.3507 85.1549 99.5584 85.1549 102.935C85.1549 107.437 82.9663 109.688 78.5892 109.688ZM114.616 117.961H140.879V108.506H118.488C115.907 108.506 114.616 109.913 114.616 112.727V117.961ZM152.832 117.961H180.273V112.727C180.273 109.913 178.926 108.506 176.232 108.506H152.832V117.961ZM118.488 136.701H140.879V127.584H114.616V132.818C114.616 135.407 115.907 136.701 118.488 136.701ZM152.832 136.701H176.232C178.926 136.701 180.273 135.407 180.273 132.818V127.584H152.832V136.701ZM193.572 199C185.043 199 176.569 199 168.152 199C159.734 199 151.26 198.944 142.731 198.831C132.966 198.719 124.549 198.437 117.478 197.987C110.52 197.537 105.076 196.749 101.148 195.623C92.9551 193.26 86.2772 189.489 81.1145 184.312C69.7789 193.541 62.7082 198.156 59.9024 198.156C55.3008 198.156 53 195.623 53 190.558C53 188.758 53.6173 187.238 54.8519 186C56.1987 184.649 57.7699 183.636 59.5657 182.961C61.3614 182.286 63.3816 181.329 65.6263 180.091C67.9832 178.853 70.7329 177.333 73.8754 175.532V144.974C73.8754 141.597 72.1358 139.909 68.6566 139.909H59.3973C55.1324 139.909 53 137.883 53 133.831C53 129.892 55.1324 127.922 59.3973 127.922H72.697C77.2985 127.922 80.7217 128.879 82.9663 130.792C85.211 132.706 86.2211 135.97 85.9966 140.584V174.013C89.0269 176.489 92.0572 178.571 95.0875 180.26C98.2301 181.948 101.709 183.299 105.525 184.312C109.341 185.212 113.887 185.887 119.162 186.338C124.549 186.675 131.002 186.844 138.522 186.844C148.174 186.844 157.882 186.788 167.646 186.675C177.411 186.45 187.119 186.281 196.771 186.169C200.924 186.169 203 188.195 203 192.247C203 196.749 199.857 199 193.572 199Z" fill="white"/>
</g>
<defs>
<filter id="filter0_d_4_5" x="53" y="56" width="153" height="146" filterUnits="userSpaceOnUse" color-interpolation-filters="sRGB">
<feFlood flood-opacity="0" result="BackgroundImageFix"/>
<feColorMatrix in="SourceAlpha" type="matrix" values="0 0 0 0 0 0 0 0 0 0 0 0 0 0 0 0 0 0 127 0" result="hardAlpha"/>
<feOffset dx="3" dy="3"/>
<feComposite in2="hardAlpha" operator="out"/>
<feColorMatrix type="matrix" values="0 0 0 0 0.666667 0 0 0 0 0.666667 0 0 0 0 0.666667 0 0 0 0.666667 0"/>
<feBlend mode="normal" in2="BackgroundImageFix" result="effect1_dropShadow_4_5"/>
<feBlend mode="normal" in="SourceGraphic" in2="effect1_dropShadow_4_5" result="shape"/>
</filter>
</defs>
</svg>
